<svg id="Layer_1" data-name="Layer 1" xmlns="http://www.w3.org/2000/svg" viewBox="0 0 48 48"><title>15. Food - Drink - Cooking</title><path d="M24,0A24,24,0,1,0,48,24,24,24,0,0,0,24,0Zm0,46A22,22,0,1,1,46,24,22,22,0,0,1,24,46Z"/><rect x="23" y="9" width="2" height="8"/><rect x="23" y="32" width="2" height="7"/><rect x="31" y="23" width="8" height="2"/><rect x="9" y="23" width="7" height="2"/><rect x="28.21" y="15.05" width="7.5" height="2" transform="translate(-1.99 27.29) rotate(-45)"/><rect x="12.29" y="30.95" width="7.5" height="2" transform="translate(-17.9 20.7) rotate(-45)"/><rect x="30.95" y="28.21" width="2" height="7.5" transform="translate(-13.24 31.96) rotate(-45)"/><rect x="15.05" y="12.3" width="2" height="7.5" transform="translate(-6.65 16.05) rotate(-45)"/></svg>