<?xml version="1.0" encoding="UTF-8" standalone="no"?>
<svg width="460px" height="384px" viewBox="0 0 460 384" version="1.1" xmlns="http://www.w3.org/2000/svg" xmlns:xlink="http://www.w3.org/1999/xlink">
	<defs>
		<g id="x">
			<path d="M6,0 L6,27"/>
			<path d="M11,0 L11,27"/>
			<path d="M16,0 L16,27"/>
			<path d="M21,0 L21,27"/>
			<path d="M26,0 L26,27"/>
			<path d="M1,0 L1,27"/>
		</g>
	</defs>
	<g fill="none">
		<path d="M61,128 C44,304 337,296 394,127 C446,130 455,97 455,97 C455,97 435,81 403,93 C405,67 376,48 376,48 C376,48 350,78 374,114 C374,114 359,128 331,128 L61,128 Z" fill="#24B8EB"/>
		<path d="M62,161 C79,292 304,287 379,161 C360,161 79,161 62,161 Z" fill="#008BB8"/>
		<path d="M61,128 L61,159 L82,159 C79,148 79,128 79,128 L61,128 Z" fill="#00AADA"/>
		<path d="M340,158 C340,158 388,122 404,92 C436,81 455,97 455,97 C455,97 446,131 395,127 C395,127 380,159 380,159 L340,158 Z" fill="#00AADA"/>
		<path d="M82,161 C128,286 300,197 338,161 L82,161 Z" fill="#039BC6"/>
		<path d="M84,211 L155,208 C155,208 169,245 212,257 C115,262 84,211 84,211 Z" fill="#BFDBE0"/>
		<path d="M120.5,212 L155.5,206.5 C155.5,206.5 160,219 165,225 C134.5,224.5 120.5,212 120.5,212 Z" fill="#D4EDF1"/>
		<path d="M61,128 C44,304 337,296 394,127 C446,130 455,97 455,97 C455,97 435,81 403,93 C405,67 376,48 376,48 C376,48 350,78 374,114 C374,114 359,128 331,128 L61,128 Z" stroke="#394C53" stroke-width="7"/>
		<polygon stroke="#394C53" stroke-width="6" fill="#20C2EF" points="96 128 96 86 138 86 138 44 220 44 220 4 262 4 262 86 304 86 304 128"/>
		<g transform="translate(104, 11)" stroke="#394C53" stroke-width="2">
			<use xlink:href="#x" x="41.5" y="41"/>
			<use xlink:href="#x" x="82.5" y="41"/>
			<use xlink:href="#x" x="41.5" y="83"/>
			<use xlink:href="#x" x="0" y="83"/>
			<use xlink:href="#x" x="82.5" y="83"/>
			<use xlink:href="#x" x="123.5" y="83"/>
			<use xlink:href="#x" x="165" y="83"/>
			<use xlink:href="#x" x="123.5" y="41"/>
			<use xlink:href="#x" x="123.5" y="0"/>
		</g>
		<g transform="translate(137, 43)">
			<path stroke="#394C53" stroke-width="5" d="M124.5,45 L124.5,82 M42.5,3 L42.5,82 M83.5,3 L83.5,82 M1.5,45 L1.5,82 M3,43.5 L123,43.5 M85,1.5 L123,1.5"/>
		</g>
		<path d="M2,162 L456,162 C456,162 427,157 430,144 C408,166 366,156 358,148 C339,164 282,159 268,146 C241,167 200,157 190,145 C176,164 105,160 101,148 C75,165 37,156 29,144 C31,158 2,162 2,162 Z" fill="#394D54"/>
		<path d="M85,210 L130,210 C151,210 159,204 159,204" stroke="#394D54" stroke-width="6" stroke-linecap="round"/>
		<circle fill="#FFF" cx="175" cy="192" r="10"/>
		<circle fill="#394D54" cx="175" cy="192" r="7"/>
		<circle fill="#FFF" cx="179" cy="188" r="3"/>
	</g>
	<g stroke="#394D54" stroke-width="13" stroke-linecap="round" fill="none">
		<path d="M304,371 L274,341"/>
		<circle cx="46" cy="338" r="34"/>
		<path d="M80,277 L80,339"/>
		<path d="M135,372 C154,372 169,357 169,338 C169,319 154,304 135,304 C116,304 101,319 101,338 C101,357 116,372 135,372 Z"/>
		<path d="M241,308 C235,305 231,304 225,304 C206,304 191,319 191,338 C191,357 206,372 225,372 C231,372 237,370 242,367"/>
		<path d="M388,319 C381,309 370,304 359,304 C340,304 325,319 325,338 C325,357 340,372 359,372 C365,372 372,370 377,367"/>
		<path d="M340,362 L388,320"/>
		<path d="M414,372 C414,372 414,353 414,337 C414,321 428,304 449,304"/>
		<path d="M270,278 L270,372"/>
		<path d="M303,304 L272,336"/>
	</g>
</svg>
