<?xml version="1.0" encoding="utf-8"?><!-- Generator: Adobe Illustrator 19.2.0, SVG Export Plug-In . SVG Version: 6.00 Build 0) --><svg version="1.1" id="Layer_1" xmlns:sketch="http://www.bohemiancoding.com/sketch/ns" xmlns="http://www.w3.org/2000/svg" xmlns:xlink="http://www.w3.org/1999/xlink" x="0px" y="0px" viewBox="0 0 143 40" style="enable-background:new 0 0 143 40;" xml:space="preserve"><style type="text/css">.st0{fill:#430098;}</style><title>logo</title><desc>Created with Sketch.</desc><g id="Page-1" sketch:type="MSPage"><g id="main" transform="translate(-25.000000, -23.000000)" sketch:type="MSArtboardGroup"><g id="nav" transform="translate(25.000000, 23.000000)" sketch:type="MSLayerGroup"><path id="logo" sketch:type="MSShapeGroup" class="st0" d="M32.3,0H3.6C1.6,0,0,1.6,0,3.6v32.8c0,2,1.6,3.6,3.6,3.6h28.7	c2,0,3.6-1.6,3.6-3.6V3.6C35.9,1.6,34.3,0,32.3,0z M33.9,36.4c0,0.9-0.7,1.6-1.6,1.6H3.6C2.7,38,2,37.3,2,36.4V3.6	C2,2.7,2.7,2,3.6,2h28.7c0.9,0,1.6,0.7,1.6,1.6V36.4z M9,34l4.5-4L9,26V34z M25.2,17.8C24.4,17,22.9,16,20.4,16	c-2.7,0-5.5,0.7-7.5,1.4V6H9v17.3l2.8-1.3c0,0,4.6-2.1,8.6-2.1c2,0,2.5,1.1,2.5,2.1V34h4V22C26.9,21.7,26.9,19.5,25.2,17.8z M19.9,12.5h4c1.8-2.1,2.7-4.2,3-6.5h-4C22.5,8.3,21.5,10.4,19.9,12.5z M130.4,21.9v-8.9h4v8.8c0,2,0.7,3,2.3,3	c1.6,0,2.2-0.9,2.2-3v-8.8h3.9v8.9c0,3.9-1.9,6.2-6.2,6.2C132.3,28.1,130.4,25.8,130.4,21.9z M113.6,13.1h4v5.4l4.1-5.4h4.6	l-5,5.8l5.4,9h-4.5l-3.5-5.9l-1.1,1.3v4.6h-4V13.1z M94.6,20.4c0-5.4,3.7-7.7,7.3-7.7c3.6,0,7.3,2.3,7.3,7.7	c0,5.4-3.7,7.7-7.3,7.7C98.3,28.1,94.6,25.9,94.6,20.4z M105.1,20.4c0-2.7-1.2-4.4-3.3-4.4c-2.1,0-3.3,1.7-3.3,4.4	c0,2.7,1.2,4.5,3.3,4.5C103.9,24.9,105.1,23.2,105.1,20.4z M78.5,13.1h5.8c3.8,0,6.1,1.3,6.1,4.8c0,2.3-1,3.7-2.9,4.3l3.1,5.7	h-4.2l-2.9-5.1h-1.1v5.1h-3.9V13.1z M84.2,19.7c1.6,0,2.4-0.5,2.4-1.7c0-1.2-0.7-1.7-2.4-1.7h-1.7v3.4H84.2z M63.2,13.1h10.6v3.3	h-6.6v2.4h4.7v3.1h-4.7v2.7h6.9v3.2H63.2V13.1z M45.1,13.1h4v5.5h4.9v-5.5h4v14.8h-4v-6h-4.9v6h-4V13.1z"/></g></g></g></svg>