<svg id="Layer_1" data-name="Layer 1" xmlns="http://www.w3.org/2000/svg" viewBox="0 0 48 48"><title>08. Reading - Education</title><path d="M41.65,24a18.41,18.41,0,0,0,4-6.89A6.47,6.47,0,0,0,45.22,12c-1.83-3.1-6.58-4-12.57-2.93C30.65,3.51,27.55,0,24,0s-6.66,3.51-8.65,9.06C9.36,8,4.6,8.89,2.77,12a6.47,6.47,0,0,0-.47,5.12,18.41,18.41,0,0,0,4,6.89,18.41,18.41,0,0,0-4,6.89A6.47,6.47,0,0,0,2.77,36c1.34,2.27,4.25,3.38,8.08,3.38a25.54,25.54,0,0,0,4.5-.45c2,5.55,5.1,9.06,8.65,9.06s6.66-3.51,8.65-9.06a25.56,25.56,0,0,0,4.5.45c3.82,0,6.73-1.11,8.08-3.38a6.47,6.47,0,0,0,.47-5.12A18.41,18.41,0,0,0,41.65,24ZM37.13,10.6c3.17,0,5.45.85,6.37,2.4a4.56,4.56,0,0,1,.27,3.58,16.12,16.12,0,0,1-3.46,5.94,44,44,0,0,0-5.7-4.86A42.15,42.15,0,0,0,33.26,11,23.14,23.14,0,0,1,37.13,10.6Zm-2.28,9.75A39.81,39.81,0,0,1,39,24a39.78,39.78,0,0,1-4.11,3.65Q35,25.87,35,24T34.86,20.35Zm-2.5-4.21c-0.89-.58-1.81-1.14-2.76-1.67s-2.07-1.11-3.1-1.61a39.85,39.85,0,0,1,4.79-1.49A39.53,39.53,0,0,1,32.36,16.14ZM24,2c2.62,0,5,2.92,6.68,7.48A44,44,0,0,0,24,11.72a44,44,0,0,0-6.68-2.24C19,4.92,21.38,2,24,2Zm-7.3,9.37a39.81,39.81,0,0,1,4.79,1.49c-1,.5-2.06,1-3.1,1.61s-1.87,1.1-2.76,1.67A39.52,39.52,0,0,1,16.7,11.37ZM4.23,16.59A4.56,4.56,0,0,1,4.5,13c0.92-1.55,3.19-2.4,6.37-2.4a23.14,23.14,0,0,1,3.87.36,42.15,42.15,0,0,0-1.34,6.71,44,44,0,0,0-5.7,4.86A16.12,16.12,0,0,1,4.23,16.59Zm8.91,11.06A39.78,39.78,0,0,1,9,24a39.81,39.81,0,0,1,4.11-3.65Q13,22.13,13,24T13.14,27.65ZM4.5,35a4.56,4.56,0,0,1-.27-3.58,16.12,16.12,0,0,1,3.46-5.94,44,44,0,0,0,5.7,4.86A42.14,42.14,0,0,0,14.73,37C9.56,37.92,5.75,37.12,4.5,35Zm11.14-3.13c0.89,0.58,1.81,1.14,2.76,1.67s2.06,1.11,3.09,1.61a39.88,39.88,0,0,1-4.78,1.49A39.52,39.52,0,0,1,15.64,31.86ZM24,46c-2.62,0-5-2.92-6.68-7.47A44.15,44.15,0,0,0,24,36.28a44.13,44.13,0,0,0,6.68,2.25C29,43.08,26.62,46,24,46Zm7.3-9.37a39.84,39.84,0,0,1-4.78-1.49c1-.5,2.06-1,3.09-1.61s1.87-1.1,2.76-1.67A39.51,39.51,0,0,1,31.29,36.63Zm1.41-7.4c-1.29.89-2.66,1.75-4.09,2.56S25.5,33.44,24,34.11c-1.5-.67-3-1.43-4.62-2.32s-2.8-1.67-4.09-2.56a50.85,50.85,0,0,1,0-10.46c1.29-.89,2.66-1.75,4.09-2.56s3.11-1.65,4.62-2.32c1.5,0.67,3,1.43,4.62,2.32s2.8,1.67,4.09,2.56A50.71,50.71,0,0,1,33,24,50.71,50.71,0,0,1,32.71,29.23ZM43.5,35c-1.26,2.13-5.06,2.93-10.24,2a42.14,42.14,0,0,0,1.34-6.71,44,44,0,0,0,5.7-4.86,16.12,16.12,0,0,1,3.46,5.94A4.56,4.56,0,0,1,43.5,35Z"/><path d="M24,22h0a2,2,0,0,0,0,4h0A2,2,0,0,0,24,22Z"/></svg>