<?xml version="1.0" encoding="utf-8"?>
<!-- Generator: Adobe Illustrator 19.2.1, SVG Export Plug-In . SVG Version: 6.00 Build 0)  -->
<svg version="1.1" id="Layer_1" xmlns="http://www.w3.org/2000/svg" xmlns:xlink="http://www.w3.org/1999/xlink" x="0px" y="0px"
	 viewBox="0 0 48 48" style="enable-background:new 0 0 48 48;" xml:space="preserve">
<title>01. General</title>
<path d="M35.6,28.2l-1.1,1.1L30.4,25l3.9-3.9l2.7,0.1c2.6,0.1,5-1.2,6.4-3.5L48,9.6l-3.2-3.2l-5.3,5.3l-2.8-2.8L42,3.6L38.4,0l-8,5
	c-2.1,1.3-3.4,3.7-3.3,6.1l0.1,3L23,18.4l-9.3-9.3l-1.1-6.3L2.9,0.3L0,3.3l2.8,9.2L8.7,14l9.3,9.3L1.8,39.5
	c-0.9,0.9-1.5,2.2-1.5,3.5c0,1.3,0.5,2.6,1.5,3.5c1,1,2.2,1.5,3.5,1.5s2.5-0.5,3.5-1.5l16.2-16.2l4.2,4.2L27.9,36l10.5,10.4
	c1.1,1.1,2.5,1.6,3.9,1.6c1.4,0,2.8-0.5,3.9-1.6c1-1,1.6-2.4,1.6-3.9s-0.6-2.8-1.6-3.9L35.6,28.2z M9.7,12l-5.4-1.3l-2.1-7l1.3-1.3
	l7.3,1.8l1,5.7l9.8,9.8l-2.1,2.1L9.7,12z M7.4,45.1c-1.2,1.2-3.1,1.2-4.3,0c-0.6-0.6-0.9-1.3-0.9-2.1s0.3-1.6,0.9-2.1l16.3-16.3l0,0
	l5-5l0,0l4.9-4.9l-0.1-3.9c-0.1-1.8,0.9-3.5,2.4-4.4l6.8-4.2l1,1L34,8.6l5.7,5.7L45,9l0.7,0.7l-4,6.9c-0.9,1.6-2.7,2.6-4.6,2.5
	L33.6,19L29,23.5l0,0l-5.3,5.3l0,0L7.4,45.1z M26.6,28.8l2.5-2.5l4.3,4.3l-2.5,2.5L26.6,28.8z M45,45c-1.4,1.4-3.6,1.4-5,0l-9.2-9.1
	l5-5L45,40c0.7,0.7,1,1.5,1,2.5C46,43.4,45.6,44.3,45,45z"/>
</svg>
